<svg xmlns="http://www.w3.org/2000/svg" viewBox="0 0 1024 1024">
  <defs>
    <linearGradient id="bg" x1="130" y1="90" x2="900" y2="940" gradientUnits="userSpaceOnUse">
      <stop stop-color="#ff8a5f"/>
      <stop offset="1" stop-color="#e84616"/>
    </linearGradient>
    <filter id="shadow" x="-20%" y="-20%" width="140%" height="140%">
      <feDropShadow dx="0" dy="30" stdDeviation="30" flood-color="#6b1700" flood-opacity=".3"/>
    </filter>
  </defs>
  <rect x="86" y="86" width="852" height="852" rx="220" fill="url(#bg)" filter="url(#shadow)"/>
  <path d="M315 285c35 0 64 29 64 64s-29 64-64 64-64-29-64-64 29-64 64-64Zm0 326c35 0 64 29 64 64s-29 64-64 64-64-29-64-64 29-64 64-64Z" fill="none" stroke="#fff" stroke-width="40"/>
  <path d="M365 389 735 706M365 635 735 318" fill="none" stroke="#fff" stroke-width="54" stroke-linecap="round"/>
  <circle cx="558" cy="512" r="34" fill="#fff"/>
</svg>
